#!OML:ASF I:\Actors\actors\Patient Classification 1\Patient 1\Session 1\Subject1.ASF
:FULLY-SPECIFIED
:DEGREES
264
root 0.612525 17.4879 9.06201 7.66603 -7.34442 -6.93912
lowerback -0.365003 -1.53235 11.9117
upperback -9.35526 -1.31983 2.30393
thorax -10.169 -1.54139 -4.02222
lowerneck -9.09344 4.46483 5.47228
upperneck 14.6148 10.094 -28.2275
head 7.92386 3.01236 -9.6705
rclavicle 2.60408e-014 3.65764e-014
rhumerus 25.0335 70.8354 -72.2046
rradius 125.507
rwrist -21.4148
rhand 34.4587 -27.9093
rfingers 7.12502
rthumb 57.6646 -43.9279
lclavicle 2.60408e-014 3.65764e-014
lhumerus -0.972054 27.5941 71.7184
lradius 95.8904
lwrist 91.7612
lhand -11.023 -2.87889
lfingers 7.12502
lthumb 14.9984 26.5579
rfemur -4.65668 23.4999 23.1168
rtibia 5.56871
rfoot -11.6002 -21.2316
rtoes -2.41772
lfemur 8.91965 -40.7454 -16.0169
ltibia -4.17671
lfoot -25.7196 52.5789
ltoes 12.7102
265
root 0.610497 17.492 9.04942 7.83571 -7.32631 -6.96354
lowerback -0.143548 -1.66808 11.9088
upperback -9.30381 -1.47749 2.25308
thorax -10.2716 -1.62346 -4.05539
lowerneck -8.89104 4.15245 4.95836
upperneck 12.5901 9.18324 -28.2572
head 7.03817 2.72206 -9.55856
rclavicle -3.38928e-014 4.09496e-014
rhumerus 24.4143 71.0425 -72.8558
rradius 125.517
rwrist -21.2969
rhand 34.327 -27.7484
rfingers 7.12502
rthumb 57.5494 -43.8673
lclavicle -3.38928e-014 4.09496e-014
lhumerus -1.19477 27.7572 71.0224
lradius 95.8708
lwrist 91.9159
lhand -11.4052 -2.75606
lfingers 7.12502
lthumb 14.6301 26.7079
rfemur -4.92007 23.5168 23.057
rtibia 5.60158
rfoot -11.5215 -21.2469
rtoes -2.48912
lfemur 8.54152 -40.6591 -15.6993
ltibia -4.15334
lfoot -25.4456 52.5251
ltoes 12.382
266
root 0.607367 17.4966 9.03862 7.97525 -7.32142 -6.92775
lowerback 0.065891 -1.78394 11.8601
upperback -9.25179 -1.61692 2.15223
thorax -10.362 -1.69489 -4.11924
lowerneck -8.62369 3.75428 4.38786
upperneck 10.4282 8.10018 -28.1468
head 6.0835 2.37828 -9.40492
rclavicle 2.54444e-014 -4.37326e-015
rhumerus 23.769 71.1706 -73.5242
rradius 125.519
rwrist -21.2935
rhand 34.3345 -27.8151
rfingers 7.12502
rthumb 57.5559 -43.9284
lclavicle 2.54444e-014 -4.37326e-015
lhumerus -1.31485 27.849 70.3851
lradius 95.7769
lwrist 92.067
lhand -11.6288 -2.55802
lfingers 7.12502
lthumb 14.4147 26.9214
rfemur -5.11637 23.6204 22.9529
rtibia 5.5813
rfoot -11.4693 -21.3487
rtoes -2.40301
lfemur 8.2163 -40.5758 -15.4897
ltibia -4.12183
lfoot -25.2711 52.4499
ltoes 12.2907
267
root 0.603577 17.5017 9.02833 8.10652 -7.35081 -6.85723
lowerback 0.305378 -1.89682 11.7967
upperback -9.21694 -1.75222 1.99925
thorax -10.4913 -1.76845 -4.22972
lowerneck -8.3475 3.35548 3.91752
upperneck 8.23196 6.98892 -27.9221
head 5.13923 2.03975 -9.2414
rclavicle -8.94531e-015 4.77083e-015
rhumerus 22.8876 71.2812 -74.4636
rradius 125.544
rwrist -21.2432
rhand 34.3358 -27.9814
rfingers 7.12502
rthumb 57.557 -44.0937
lclavicle -8.94531e-015 4.77083e-015
lhumerus -1.42299 27.9043 69.7432
lradius 95.7717
lwrist 92.1907
lhand -11.9566 -2.54949
lfingers 7.12502
lthumb 14.0988 26.9522
rfemur -5.32738 23.7219 22.7995
rtibia 5.57579
rfoot -11.4456 -21.4117
rtoes -2.18631
lfemur 7.92127 -40.5365 -15.345
ltibia -4.0842
lfoot -25.4066 52.3703
ltoes 12.5947
268
root 0.600274 17.5066 9.0179 8.23211 -7.42348 -6.82087
lowerback 0.483864 -1.98515 11.8043
upperback -9.12741 -1.86823 1.79504
thorax -10.5254 -1.83496 -4.44084
lowerneck -8.04995 2.92436 3.43649
upperneck 5.99747 5.81406 -27.4694
head 4.18448 1.68717 -9.00839
rclavicle -3.4191e-014 -1.53064e-014
rhumerus 22.1062 71.4122 -75.3686
rradius 125.572
rwrist -21.0912
rhand 34.1199 -28.0407
rfingers 7.12502
rthumb 57.3679 -44.316
lclavicle -3.4191e-014 -1.53064e-014
lhumerus -1.3303 27.8938 69.1481
lradius 95.739
lwrist 92.148
lhand -12.2583 -2.37671
lfingers 7.12502
lthumb 13.808 27.145
rfemur -5.58217 23.6993 22.6711
rtibia 5.64428
rfoot -11.4308 -21.3182
rtoes -2.09151
lfemur 7.62364 -40.4228 -15.1609
ltibia -4.02619
lfoot -25.291 52.2907
ltoes 12.4988
269
root 0.595693 17.5111 9.00749 8.33652 -7.53887 -6.87302
lowerback 0.590966 -2.02084 11.8856
upperback -8.94155 -1.9256 1.59863
thorax -10.4007 -1.86708 -4.69688
lowerneck -7.68774 2.45363 2.86965
upperneck 3.68236 4.57762 -26.7955
head 3.19989 1.32086 -8.69578
rclavicle -1.47598e-014 -1.55052e-014
rhumerus 22.0471 71.4309 -75.5203
rradius 125.582
rwrist -20.963
rhand 33.9191 -27.7477
rfingers 7.12502
rthumb 57.1917 -44.1728
lclavicle -1.47598e-014 -1.55052e-014
lhumerus -1.0139 27.7922 68.7142
lradius 95.6392
lwrist 92.0542
lhand -12.1902 -2.0777
lfingers 7.12502
lthumb 13.8737 27.4396
rfemur -5.79477 23.7093 22.6774
rtibia 5.71642
rfoot -11.3783 -21.2193
rtoes -2.21781
lfemur 7.37994 -40.1842 -14.89
ltibia -3.99829
lfoot -25.0026 52.1877
ltoes 12.1675
270
root 0.59062 17.5148 8.99749 8.44899 -7.6821 -7.01129
lowerback 0.760796 -2.03108 11.9773
upperback -8.78642 -1.9296 1.48407
thorax -10.3372 -1.87323 -4.87186
lowerneck -7.18933 2.05276 2.25501
upperneck 1.37346 3.46448 -26.0343
head 2.23324 1.02055 -8.34992
rclavicle -6.28657e-014 7.95139e-016
rhumerus 22.3088 71.4369 -75.2414
rradius 125.619
rwrist -20.9878
rhand 33.8845 -27.4744
rfingers 7.12502
rthumb 57.1613 -43.9252
lclavicle -6.28657e-014 7.95139e-016
lhumerus -0.771592 27.6833 68.3912
lradius 95.5313
lwrist 92.034
lhand -12.0594 -2.02529
lfingers 7.12502
lthumb 13.9998 27.4833
rfemur -5.98905 23.8193 22.7971
rtibia 5.78087
rfoot -11.2886 -21.1819
rtoes -2.34624
lfemur 7.23176 -40.0985 -14.5942
ltibia -4.00733
lfoot -25.2348 52.1953
ltoes 12.4299
271
root 0.587299 17.5178 8.98739 8.59582 -7.83926 -7.16354
lowerback 0.980461 -2.03411 12.0413
upperback -8.72512 -1.90846 1.40552
thorax -10.4037 -1.87312 -4.99
lowerneck -6.70926 1.77322 1.90328
upperneck -0.549997 2.62164 -25.5412
head 1.45062 0.80886 -8.14409
rclavicle 3.50606e-014 -1.65985e-014
rhumerus 22.4513 71.5749 -75.0752
rradius 125.64
rwrist -21.0673
rhand 33.7484 -27.3765
rfingers 7.12502
rthumb 57.0416 -43.9277
lclavicle 3.50606e-014 -1.65985e-014
lhumerus -0.754579 27.5655 68.0466
lradius 95.4826
lwrist 92.1091
lhand -12.1923 -1.96165
lfingers 7.12502
lthumb 13.8717 27.5557
rfemur -6.24928 23.8322 22.8973
rtibia 5.87668
rfoot -11.1889 -21.0331
rtoes -2.48651
lfemur 7.09024 -40.1762 -14.3223
ltibia -4.00034
lfoot -25.8541 52.3006
ltoes 13.1002
272
root 0.584343 17.5195 8.97875 8.74305 -8.01795 -7.25702
lowerback 1.17714 -2.00719 12.0301
upperback -8.70627 -1.85299 1.31596
thorax -10.4933 -1.85382 -5.08237
lowerneck -6.47274 1.58023 1.83889
upperneck -1.80712 2.05883 -25.3726
head 0.962109 0.654453 -8.09509
rclavicle -2.2413e-014 -5.50634e-014
rhumerus 22.3831 71.7154 -75.0936
rradius 125.626
rwrist -21.1183
rhand 33.6259 -27.1125
rfingers 7.12502
rthumb 56.9339 -43.7534
lclavicle -2.2413e-014 -5.50634e-014
lhumerus -0.865636 27.3615 67.7386
lradius 95.4657
lwrist 92.2284
lhand -12.4135 -2.08068
lfingers 7.12502
lthumb 13.6585 27.4512
rfemur -6.50861 23.7395 22.9191
rtibia 5.94486
rfoot -11.0886 -20.7693
rtoes -2.62181
lfemur 6.94183 -40.1743 -14.1198
ltibia -3.98897
lfoot -26.3313 52.3718
ltoes 13.5982
